<mxfile host="app.diagrams.net" modified="2023-01-20T11:05:33.673Z" agent="5.0 (Windows NT 10.0; Win64; x64) AppleWebKit/537.36 (KHTML, like Gecko) Chrome/109.0.0.0 Safari/537.36" etag="4WUWfKpgLQQc1P3vnIU6" version="20.8.8" type="github">
  <diagram id="xKoJs9kLWx1DLvryk3SL" name="Page-1">
    <mxGraphModel dx="1900" dy="3849" grid="1" gridSize="10" guides="1" tooltips="1" connect="1" arrows="1" fold="1" page="1" pageScale="1" pageWidth="850" pageHeight="1100" math="0" shadow="0">
      <root>
        <mxCell id="0" />
        <mxCell id="1" parent="0" />
        <mxCell id="nKunjeyCYrjUGmH7JGCF-15" value="" style="rounded=0;whiteSpace=wrap;html=1;align=left;" parent="1" vertex="1">
          <mxGeometry x="-745" y="-2650" width="1060" height="160" as="geometry" />
        </mxCell>
        <mxCell id="nKunjeyCYrjUGmH7JGCF-16" value="" style="rounded=0;whiteSpace=wrap;html=1;" parent="1" vertex="1">
          <mxGeometry x="-745" y="-2480" width="1060" height="190" as="geometry" />
        </mxCell>
        <mxCell id="nKunjeyCYrjUGmH7JGCF-17" value="" style="rounded=0;whiteSpace=wrap;html=1;" parent="1" vertex="1">
          <mxGeometry x="-745" y="-2280" width="1060" height="170" as="geometry" />
        </mxCell>
        <mxCell id="nKunjeyCYrjUGmH7JGCF-18" value="" style="rounded=0;whiteSpace=wrap;html=1;" parent="1" vertex="1">
          <mxGeometry x="-745" y="-2100" width="1060" height="160" as="geometry" />
        </mxCell>
        <mxCell id="nKunjeyCYrjUGmH7JGCF-8" style="edgeStyle=orthogonalEdgeStyle;rounded=0;orthogonalLoop=1;jettySize=auto;html=1;exitX=1;exitY=0.5;exitDx=0;exitDy=0;entryX=0;entryY=0.5;entryDx=0;entryDy=0;" parent="1" source="nKunjeyCYrjUGmH7JGCF-2" target="nKunjeyCYrjUGmH7JGCF-7" edge="1">
          <mxGeometry relative="1" as="geometry" />
        </mxCell>
        <mxCell id="nKunjeyCYrjUGmH7JGCF-2" value="Acceptation" style="rounded=1;whiteSpace=wrap;html=1;" parent="1" vertex="1">
          <mxGeometry x="-605" y="-2610" width="100" height="50" as="geometry" />
        </mxCell>
        <mxCell id="nKunjeyCYrjUGmH7JGCF-6" style="edgeStyle=orthogonalEdgeStyle;rounded=0;orthogonalLoop=1;jettySize=auto;html=1;exitX=1;exitY=0.5;exitDx=0;exitDy=0;entryX=0;entryY=0.5;entryDx=0;entryDy=0;" parent="1" source="nKunjeyCYrjUGmH7JGCF-3" target="nKunjeyCYrjUGmH7JGCF-2" edge="1">
          <mxGeometry relative="1" as="geometry" />
        </mxCell>
        <mxCell id="nKunjeyCYrjUGmH7JGCF-3" value="&lt;br&gt;&lt;br&gt;&lt;br&gt;&lt;br&gt;&lt;br&gt;&lt;br&gt;&lt;br&gt;&lt;br&gt;A patient comes&lt;br&gt;&amp;nbsp;" style="ellipse;whiteSpace=wrap;html=1;aspect=fixed;" parent="1" vertex="1">
          <mxGeometry x="-675" y="-2595" width="20" height="20" as="geometry" />
        </mxCell>
        <mxCell id="nKunjeyCYrjUGmH7JGCF-12" style="edgeStyle=orthogonalEdgeStyle;rounded=0;orthogonalLoop=1;jettySize=auto;html=1;exitX=1;exitY=0.5;exitDx=0;exitDy=0;entryX=0.5;entryY=0;entryDx=0;entryDy=0;" parent="1" source="nKunjeyCYrjUGmH7JGCF-7" edge="1">
          <mxGeometry relative="1" as="geometry">
            <mxPoint x="-355" y="-2460" as="targetPoint" />
          </mxGeometry>
        </mxCell>
        <mxCell id="nKunjeyCYrjUGmH7JGCF-57" style="edgeStyle=orthogonalEdgeStyle;rounded=0;orthogonalLoop=1;jettySize=auto;html=1;exitX=0.5;exitY=1;exitDx=0;exitDy=0;entryX=0;entryY=0.5;entryDx=0;entryDy=0;" parent="1" source="nKunjeyCYrjUGmH7JGCF-7" target="nKunjeyCYrjUGmH7JGCF-56" edge="1">
          <mxGeometry relative="1" as="geometry" />
        </mxCell>
        <mxCell id="nKunjeyCYrjUGmH7JGCF-7" value="" style="rhombus;whiteSpace=wrap;html=1;" parent="1" vertex="1">
          <mxGeometry x="-455" y="-2615" width="60" height="60" as="geometry" />
        </mxCell>
        <mxCell id="nKunjeyCYrjUGmH7JGCF-9" value="By ambulance" style="text;html=1;align=center;verticalAlign=middle;resizable=1;points=[];autosize=2;strokeColor=none;fillColor=none;movable=1;rotatable=1;deletable=1;editable=1;connectable=1;" parent="1" vertex="1">
          <mxGeometry x="-515" y="-2640" width="100" height="30" as="geometry" />
        </mxCell>
        <mxCell id="LTHUtU2QL-PsdqjdyS3H-1" style="edgeStyle=orthogonalEdgeStyle;rounded=0;orthogonalLoop=1;jettySize=auto;html=1;exitX=0.5;exitY=1;exitDx=0;exitDy=0;entryX=0.5;entryY=0;entryDx=0;entryDy=0;" edge="1" parent="1" source="nKunjeyCYrjUGmH7JGCF-11" target="nKunjeyCYrjUGmH7JGCF-20">
          <mxGeometry relative="1" as="geometry" />
        </mxCell>
        <mxCell id="nKunjeyCYrjUGmH7JGCF-11" value="Sign In&amp;nbsp;" style="rounded=1;whiteSpace=wrap;html=1;" parent="1" vertex="1">
          <mxGeometry x="-395" y="-2460" width="80" height="50" as="geometry" />
        </mxCell>
        <mxCell id="nKunjeyCYrjUGmH7JGCF-13" value="NO&lt;br&gt;" style="text;html=1;align=center;verticalAlign=middle;resizable=0;points=[];autosize=1;strokeColor=none;fillColor=none;" parent="1" vertex="1">
          <mxGeometry x="-365" y="-2565" width="40" height="30" as="geometry" />
        </mxCell>
        <mxCell id="nKunjeyCYrjUGmH7JGCF-25" style="edgeStyle=orthogonalEdgeStyle;rounded=0;orthogonalLoop=1;jettySize=auto;html=1;exitX=1;exitY=0.5;exitDx=0;exitDy=0;entryX=0;entryY=0.5;entryDx=0;entryDy=0;" parent="1" source="nKunjeyCYrjUGmH7JGCF-20" target="nKunjeyCYrjUGmH7JGCF-24" edge="1">
          <mxGeometry relative="1" as="geometry" />
        </mxCell>
        <mxCell id="nKunjeyCYrjUGmH7JGCF-20" value="Triage" style="rounded=1;whiteSpace=wrap;html=1;" parent="1" vertex="1">
          <mxGeometry x="-400" y="-2270" width="90" height="50" as="geometry" />
        </mxCell>
        <mxCell id="nKunjeyCYrjUGmH7JGCF-58" style="edgeStyle=orthogonalEdgeStyle;rounded=0;orthogonalLoop=1;jettySize=auto;html=1;exitX=0.5;exitY=1;exitDx=0;exitDy=0;entryX=0.5;entryY=0;entryDx=0;entryDy=0;" parent="1" source="nKunjeyCYrjUGmH7JGCF-24" target="nKunjeyCYrjUGmH7JGCF-56" edge="1">
          <mxGeometry relative="1" as="geometry" />
        </mxCell>
        <mxCell id="nKunjeyCYrjUGmH7JGCF-85" style="edgeStyle=orthogonalEdgeStyle;rounded=0;orthogonalLoop=1;jettySize=auto;html=1;exitX=0.5;exitY=0;exitDx=0;exitDy=0;entryX=0;entryY=0.5;entryDx=0;entryDy=0;fontSize=23;" parent="1" source="nKunjeyCYrjUGmH7JGCF-24" target="nKunjeyCYrjUGmH7JGCF-29" edge="1">
          <mxGeometry relative="1" as="geometry" />
        </mxCell>
        <mxCell id="nKunjeyCYrjUGmH7JGCF-24" value="" style="rhombus;whiteSpace=wrap;html=1;" parent="1" vertex="1">
          <mxGeometry x="-275" y="-2270" width="60" height="50" as="geometry" />
        </mxCell>
        <mxCell id="nKunjeyCYrjUGmH7JGCF-28" value="Red&amp;nbsp; Code" style="text;html=1;align=center;verticalAlign=middle;resizable=0;points=[];autosize=1;strokeColor=none;fillColor=none;" parent="1" vertex="1">
          <mxGeometry x="-235" y="-2240" width="80" height="30" as="geometry" />
        </mxCell>
        <mxCell id="nKunjeyCYrjUGmH7JGCF-33" style="edgeStyle=orthogonalEdgeStyle;rounded=0;orthogonalLoop=1;jettySize=auto;html=1;exitX=1;exitY=0.5;exitDx=0;exitDy=0;entryX=0.5;entryY=0;entryDx=0;entryDy=0;" parent="1" source="nKunjeyCYrjUGmH7JGCF-29" target="nKunjeyCYrjUGmH7JGCF-32" edge="1">
          <mxGeometry relative="1" as="geometry" />
        </mxCell>
        <mxCell id="nKunjeyCYrjUGmH7JGCF-29" value="Registration" style="rounded=1;whiteSpace=wrap;html=1;" parent="1" vertex="1">
          <mxGeometry x="-245" y="-2460" width="100" height="30" as="geometry" />
        </mxCell>
        <mxCell id="nKunjeyCYrjUGmH7JGCF-35" style="edgeStyle=orthogonalEdgeStyle;rounded=0;orthogonalLoop=1;jettySize=auto;html=1;exitX=1;exitY=0.5;exitDx=0;exitDy=0;entryX=0;entryY=0.5;entryDx=0;entryDy=0;" parent="1" source="nKunjeyCYrjUGmH7JGCF-32" edge="1">
          <mxGeometry relative="1" as="geometry">
            <mxPoint x="-55" y="-2365" as="targetPoint" />
          </mxGeometry>
        </mxCell>
        <mxCell id="nKunjeyCYrjUGmH7JGCF-64" style="edgeStyle=orthogonalEdgeStyle;rounded=0;orthogonalLoop=1;jettySize=auto;html=1;exitX=0.5;exitY=1;exitDx=0;exitDy=0;entryX=1;entryY=0.5;entryDx=0;entryDy=0;" parent="1" source="nKunjeyCYrjUGmH7JGCF-32" target="nKunjeyCYrjUGmH7JGCF-56" edge="1">
          <mxGeometry relative="1" as="geometry" />
        </mxCell>
        <mxCell id="nKunjeyCYrjUGmH7JGCF-32" value="" style="rhombus;whiteSpace=wrap;html=1;" parent="1" vertex="1">
          <mxGeometry x="-145" y="-2390" width="60" height="50" as="geometry" />
        </mxCell>
        <mxCell id="nKunjeyCYrjUGmH7JGCF-36" value="YES&amp;nbsp;" style="text;html=1;align=center;verticalAlign=middle;resizable=0;points=[];autosize=1;strokeColor=none;fillColor=none;" parent="1" vertex="1">
          <mxGeometry x="-95" y="-2362.5" width="50" height="30" as="geometry" />
        </mxCell>
        <mxCell id="nKunjeyCYrjUGmH7JGCF-40" style="edgeStyle=orthogonalEdgeStyle;rounded=0;orthogonalLoop=1;jettySize=auto;html=1;exitX=1;exitY=0.5;exitDx=0;exitDy=0;entryX=0;entryY=0.5;entryDx=0;entryDy=0;" parent="1" source="nKunjeyCYrjUGmH7JGCF-38" target="nKunjeyCYrjUGmH7JGCF-39" edge="1">
          <mxGeometry relative="1" as="geometry" />
        </mxCell>
        <mxCell id="nKunjeyCYrjUGmH7JGCF-38" value="" style="rhombus;whiteSpace=wrap;html=1;" parent="1" vertex="1">
          <mxGeometry x="-55" y="-2390" width="60" height="50" as="geometry" />
        </mxCell>
        <mxCell id="nKunjeyCYrjUGmH7JGCF-43" style="edgeStyle=orthogonalEdgeStyle;rounded=0;orthogonalLoop=1;jettySize=auto;html=1;exitX=1;exitY=0.5;exitDx=0;exitDy=0;" parent="1" source="nKunjeyCYrjUGmH7JGCF-39" target="nKunjeyCYrjUGmH7JGCF-42" edge="1">
          <mxGeometry relative="1" as="geometry" />
        </mxCell>
        <mxCell id="nKunjeyCYrjUGmH7JGCF-50" style="edgeStyle=orthogonalEdgeStyle;rounded=0;orthogonalLoop=1;jettySize=auto;html=1;exitX=0.5;exitY=0;exitDx=0;exitDy=0;entryX=0.5;entryY=1;entryDx=0;entryDy=0;" parent="1" source="nKunjeyCYrjUGmH7JGCF-39" target="nKunjeyCYrjUGmH7JGCF-48" edge="1">
          <mxGeometry relative="1" as="geometry" />
        </mxCell>
        <mxCell id="nKunjeyCYrjUGmH7JGCF-39" value="" style="rhombus;whiteSpace=wrap;html=1;" parent="1" vertex="1">
          <mxGeometry x="50" y="-2390" width="60" height="50" as="geometry" />
        </mxCell>
        <mxCell id="nKunjeyCYrjUGmH7JGCF-45" style="edgeStyle=orthogonalEdgeStyle;rounded=0;orthogonalLoop=1;jettySize=auto;html=1;exitX=1;exitY=0.5;exitDx=0;exitDy=0;entryX=0.5;entryY=1;entryDx=0;entryDy=0;" parent="1" source="nKunjeyCYrjUGmH7JGCF-42" target="nKunjeyCYrjUGmH7JGCF-44" edge="1">
          <mxGeometry relative="1" as="geometry" />
        </mxCell>
        <mxCell id="nKunjeyCYrjUGmH7JGCF-42" value="Release" style="rounded=1;whiteSpace=wrap;html=1;" parent="1" vertex="1">
          <mxGeometry x="165" y="-2390" width="90" height="50" as="geometry" />
        </mxCell>
        <mxCell id="nKunjeyCYrjUGmH7JGCF-44" value="" style="ellipse;whiteSpace=wrap;html=1;aspect=fixed;strokeWidth=7;" parent="1" vertex="1">
          <mxGeometry x="265" y="-2450" width="40" height="40" as="geometry" />
        </mxCell>
        <mxCell id="nKunjeyCYrjUGmH7JGCF-46" value="Admission" style="text;html=1;strokeColor=none;fillColor=none;align=center;verticalAlign=middle;whiteSpace=wrap;rounded=0;strokeWidth=7;" parent="1" vertex="1">
          <mxGeometry x="45" y="-2339" width="60" height="30" as="geometry" />
        </mxCell>
        <mxCell id="nKunjeyCYrjUGmH7JGCF-47" value="NO" style="text;html=1;strokeColor=none;fillColor=none;align=center;verticalAlign=middle;whiteSpace=wrap;rounded=0;strokeWidth=7;" parent="1" vertex="1">
          <mxGeometry x="125" y="-2392.5" width="60" height="30" as="geometry" />
        </mxCell>
        <mxCell id="nKunjeyCYrjUGmH7JGCF-51" style="edgeStyle=orthogonalEdgeStyle;rounded=0;orthogonalLoop=1;jettySize=auto;html=1;exitX=0.5;exitY=0;exitDx=0;exitDy=0;entryX=0.5;entryY=1;entryDx=0;entryDy=0;" parent="1" source="nKunjeyCYrjUGmH7JGCF-48" target="nKunjeyCYrjUGmH7JGCF-49" edge="1">
          <mxGeometry relative="1" as="geometry" />
        </mxCell>
        <mxCell id="nKunjeyCYrjUGmH7JGCF-48" value="Admission" style="rounded=1;whiteSpace=wrap;html=1;" parent="1" vertex="1">
          <mxGeometry x="35" y="-2460" width="90" height="50" as="geometry" />
        </mxCell>
        <mxCell id="nKunjeyCYrjUGmH7JGCF-53" style="edgeStyle=orthogonalEdgeStyle;rounded=0;orthogonalLoop=1;jettySize=auto;html=1;exitX=1;exitY=0.5;exitDx=0;exitDy=0;entryX=0.5;entryY=1;entryDx=0;entryDy=0;" parent="1" source="nKunjeyCYrjUGmH7JGCF-49" target="nKunjeyCYrjUGmH7JGCF-52" edge="1">
          <mxGeometry relative="1" as="geometry" />
        </mxCell>
        <mxCell id="nKunjeyCYrjUGmH7JGCF-49" value="Arrangement" style="rounded=1;whiteSpace=wrap;html=1;" parent="1" vertex="1">
          <mxGeometry x="35" y="-2560" width="90" height="50" as="geometry" />
        </mxCell>
        <mxCell id="nKunjeyCYrjUGmH7JGCF-52" value="" style="ellipse;whiteSpace=wrap;html=1;aspect=fixed;strokeWidth=7;" parent="1" vertex="1">
          <mxGeometry x="215" y="-2600" width="40" height="40" as="geometry" />
        </mxCell>
        <mxCell id="nKunjeyCYrjUGmH7JGCF-54" value="YES" style="text;html=1;strokeColor=none;fillColor=none;align=center;verticalAlign=middle;whiteSpace=wrap;rounded=0;strokeWidth=7;" parent="1" vertex="1">
          <mxGeometry x="-475" y="-2535" width="60" height="30" as="geometry" />
        </mxCell>
        <mxCell id="nKunjeyCYrjUGmH7JGCF-55" value="YES" style="text;html=1;strokeColor=none;fillColor=none;align=center;verticalAlign=middle;whiteSpace=wrap;rounded=0;strokeWidth=7;" parent="1" vertex="1">
          <mxGeometry x="25" y="-2410" width="60" height="30" as="geometry" />
        </mxCell>
        <mxCell id="nKunjeyCYrjUGmH7JGCF-67" style="edgeStyle=orthogonalEdgeStyle;rounded=0;orthogonalLoop=1;jettySize=auto;html=1;exitX=0.5;exitY=1;exitDx=0;exitDy=0;entryX=0;entryY=0.5;entryDx=0;entryDy=0;" parent="1" source="nKunjeyCYrjUGmH7JGCF-56" target="nKunjeyCYrjUGmH7JGCF-66" edge="1">
          <mxGeometry relative="1" as="geometry" />
        </mxCell>
        <mxCell id="nKunjeyCYrjUGmH7JGCF-56" value="Treatment" style="rounded=1;whiteSpace=wrap;html=1;" parent="1" vertex="1">
          <mxGeometry x="-290" y="-2100" width="90" height="50" as="geometry" />
        </mxCell>
        <mxCell id="nKunjeyCYrjUGmH7JGCF-59" value="YES&amp;nbsp;" style="text;html=1;strokeColor=none;fillColor=none;align=center;verticalAlign=middle;whiteSpace=wrap;rounded=0;strokeWidth=7;" parent="1" vertex="1">
          <mxGeometry x="-290" y="-2190" width="60" height="30" as="geometry" />
        </mxCell>
        <mxCell id="nKunjeyCYrjUGmH7JGCF-65" value="NO" style="text;html=1;strokeColor=none;fillColor=none;align=center;verticalAlign=middle;whiteSpace=wrap;rounded=0;strokeWidth=7;" parent="1" vertex="1">
          <mxGeometry x="-165" y="-2340" width="60" height="30" as="geometry" />
        </mxCell>
        <mxCell id="nKunjeyCYrjUGmH7JGCF-69" style="edgeStyle=orthogonalEdgeStyle;rounded=0;orthogonalLoop=1;jettySize=auto;html=1;exitX=0.5;exitY=0;exitDx=0;exitDy=0;entryX=0.65;entryY=1.117;entryDx=0;entryDy=0;entryPerimeter=0;" parent="1" source="nKunjeyCYrjUGmH7JGCF-66" target="nKunjeyCYrjUGmH7JGCF-29" edge="1">
          <mxGeometry relative="1" as="geometry" />
        </mxCell>
        <mxCell id="nKunjeyCYrjUGmH7JGCF-73" style="edgeStyle=orthogonalEdgeStyle;rounded=0;orthogonalLoop=1;jettySize=auto;html=1;exitX=1;exitY=0.5;exitDx=0;exitDy=0;entryX=0.5;entryY=1;entryDx=0;entryDy=0;" parent="1" source="nKunjeyCYrjUGmH7JGCF-66" target="nKunjeyCYrjUGmH7JGCF-38" edge="1">
          <mxGeometry relative="1" as="geometry" />
        </mxCell>
        <mxCell id="nKunjeyCYrjUGmH7JGCF-66" value="" style="rhombus;whiteSpace=wrap;html=1;" parent="1" vertex="1">
          <mxGeometry x="-175" y="-2040" width="60" height="50" as="geometry" />
        </mxCell>
        <mxCell id="nKunjeyCYrjUGmH7JGCF-68" value="RED CODE?" style="text;html=1;strokeColor=none;fillColor=none;align=center;verticalAlign=middle;whiteSpace=wrap;rounded=0;strokeWidth=7;" parent="1" vertex="1">
          <mxGeometry x="-235" y="-2050" width="60" height="30" as="geometry" />
        </mxCell>
        <mxCell id="nKunjeyCYrjUGmH7JGCF-72" value="YES" style="text;html=1;strokeColor=none;fillColor=none;align=center;verticalAlign=middle;whiteSpace=wrap;rounded=0;strokeWidth=7;" parent="1" vertex="1">
          <mxGeometry x="-155" y="-2065" width="60" height="30" as="geometry" />
        </mxCell>
        <mxCell id="nKunjeyCYrjUGmH7JGCF-74" value="NO" style="text;html=1;strokeColor=none;fillColor=none;align=center;verticalAlign=middle;whiteSpace=wrap;rounded=0;strokeWidth=7;" parent="1" vertex="1">
          <mxGeometry x="-135" y="-2020" width="60" height="30" as="geometry" />
        </mxCell>
        <mxCell id="nKunjeyCYrjUGmH7JGCF-75" value="EMERGENCY ROOM&lt;br&gt;" style="rounded=0;whiteSpace=wrap;html=1;strokeWidth=2;fontSize=23;rotation=-90;" parent="1" vertex="1">
          <mxGeometry x="-795" y="-2050" width="160" height="60" as="geometry" />
        </mxCell>
        <mxCell id="nKunjeyCYrjUGmH7JGCF-76" value="TRIAGE ROOM" style="rounded=0;whiteSpace=wrap;html=1;strokeWidth=2;fontSize=23;rotation=-90;" parent="1" vertex="1">
          <mxGeometry x="-800" y="-2225" width="170" height="60" as="geometry" />
        </mxCell>
        <mxCell id="nKunjeyCYrjUGmH7JGCF-77" value="ADMINISTRATIVE CLERK" style="rounded=0;whiteSpace=wrap;html=1;strokeWidth=2;fontSize=23;rotation=-90;" parent="1" vertex="1">
          <mxGeometry x="-810" y="-2417.5" width="190" height="60" as="geometry" />
        </mxCell>
        <mxCell id="nKunjeyCYrjUGmH7JGCF-78" value="ENTRANCE ROOM" style="rounded=0;whiteSpace=wrap;html=1;strokeWidth=2;fontSize=23;rotation=-90;" parent="1" vertex="1">
          <mxGeometry x="-795" y="-2600" width="160" height="60" as="geometry" />
        </mxCell>
        <mxCell id="nKunjeyCYrjUGmH7JGCF-30" value="NO" style="text;html=1;align=center;verticalAlign=middle;resizable=0;points=[];autosize=1;strokeColor=none;fillColor=none;" parent="1" vertex="1">
          <mxGeometry x="-280" y="-2320" width="40" height="30" as="geometry" />
        </mxCell>
        <mxCell id="nKunjeyCYrjUGmH7JGCF-82" value="HOSPITAL EMERGENCY SECTOR&amp;nbsp;" style="rounded=0;whiteSpace=wrap;html=1;strokeWidth=2;fontSize=23;rotation=-90;" parent="1" vertex="1">
          <mxGeometry x="-1135" y="-2325" width="710" height="60" as="geometry" />
        </mxCell>
      </root>
    </mxGraphModel>
  </diagram>
</mxfile>
